<?xml version="1.0" encoding="UTF-8" standalone="no"?>
<svg xmlns="http://www.w3.org/2000/svg" viewBox="0 0 175.216 175.552">
  <defs>
    <linearGradient id="a" x1="85.915" x2="86.535" y1="32.567" y2="137.092" gradientUnits="userSpaceOnUse">
      <stop offset="0" stop-color="#57d163"/>
      <stop offset="1" stop-color="#23b33a"/>
    </linearGradient>
  </defs>
  <path fill="#fff" d="M87.4 175.5c-35.6 0-67-21.1-80.8-53.5L0 87.8 6.7 53.4C2.5 64.6 0 76.7 0 89.5c0 48.1 38.9 87.1 87 87.1 48 0 87-39 87-87.1 0-48.1-39-87.1-87-87.1-12.8 0-25 2.8-36 7.9l34.7-7 35.2 7.1c32.3 14 53.3 45.4 53.3 81 0 47.9-39 86.9-87 86.9z"/>
  <path fill="url(#a)" d="M87.6 175.5c-48.1 0-87.1-39-87.1-87.1 0-48.1 39-87.1 87.1-87.1 48.1 0 87.1 39 87.1 87.1 0 48.1-39 87.1-87.1 87.1z"/>
  <path fill="#fff" d="M67.7 55.7c-1.7-.8-3.8-.7-6.4-.7-1.1 0-2.3.1-3.5.2-2.5.2-5.1 1.8-7.1 3.8-2.5 2.5-9.9 9.6-9.9 23.4 0 13.8 10 27.1 11.4 28.9 1.4 1.8 19.4 31.1 47.9 42.4 23.7 9.3 28.6 7.5 33.7 7 5.1-.5 16.5-6.7 18.8-13.2 2.3-6.5 2.3-12.1 1.6-13.3-.7-1.2-2.5-1.9-5.3-3.3-2.8-1.4-16.5-8.1-19-9-2.5-1-4.3-1.5-6.1 1.4-1.8 2.9-7 9-8.6 10.9-1.6 1.8-3.2 2.1-5.9.7-2.8-1.4-11.8-4.3-22.4-13.8-8.3-7.4-13.9-16.5-15.5-19.3-1.6-2.8-.2-4.3 1.2-5.7 1.2-1.3 2.8-3.3 4.2-4.9 1.4-1.6 1.8-2.8 2.8-4.7 1-1.8.5-3.5-.3-4.9-.7-1.4-6.1-14.6-8.3-20-.7-1.8-2.3-2.5-3.3-2.5z"/>
</svg>
